<?xml version="1.0" standalone="no"?>
<!DOCTYPE svg PUBLIC "-//W3C//DTD SVG 20010904//EN"
 "http://www.w3.org/TR/2001/REC-SVG-20010904/DTD/svg10.dtd">
<svg version="1.0" xmlns="http://www.w3.org/2000/svg"
 width="390.000000pt" height="390.000000pt" viewBox="0 0 390.000000 390.000000"
 preserveAspectRatio="xMidYMid meet">

<g transform="translate(0.000000,390.000000) scale(0.100000,-0.100000)"
fill="#000000" stroke="none">
<path d="M2537 2445 l-34 -35 -22 26 c-12 13 -25 22 -30 20 -5 -3 -12 -30 -16
-60 l-6 -55 -49 27 c-39 22 -51 25 -61 15 -13 -13 -11 -17 37 -128 3 -6 -13
-9 -41 -7 -56 5 -95 -4 -95 -22 0 -17 80 -91 107 -100 18 -6 16 -10 -19 -47
-21 -22 -38 -46 -38 -54 0 -17 59 -30 100 -21 30 6 30 5 16 -22 -26 -51 -36
-103 -21 -108 15 -6 66 18 84 40 20 24 27 20 39 -23 17 -56 35 -68 61 -40 12
13 21 26 21 31 0 4 4 8 8 8 22 0 45 -109 48 -229 2 -68 5 -126 5 -130 4 -20
17 64 18 116 1 58 3 63 30 78 51 26 81 85 44 85 -10 0 -39 10 -64 22 -34 17
-50 32 -60 58 -8 19 -15 38 -17 43 -2 4 8 3 23 -3 14 -5 33 -10 41 -10 18 0
18 30 -1 56 -17 25 -11 34 21 34 12 0 32 9 45 20 l24 20 -25 22 c-14 13 -38
33 -54 46 l-29 22 25 28 c37 39 68 93 68 119 0 29 -34 38 -86 24 -21 -6 -39
-9 -40 -8 -1 1 3 30 9 64 8 46 8 69 -1 88 -15 33 -24 32 -65 -10z m53 -40 c0
-103 -49 -164 -65 -82 -4 18 -9 40 -11 49 -5 16 50 88 67 88 5 0 9 -25 9 -55z
m-102 -7 c6 -14 15 -39 18 -56 5 -24 2 -30 -14 -34 -31 -8 -42 11 -42 70 0 59
15 66 38 20z m-92 -55 c51 -33 60 -50 39 -73 -8 -9 -15 -22 -15 -28 0 -7 -7
-12 -15 -12 -16 0 -60 70 -70 113 -9 35 5 35 61 0z m309 -65 c-16 -53 -70
-118 -97 -118 -5 0 -8 9 -8 20 0 12 -7 35 -16 51 -24 48 -2 64 89 68 35 1 38
-1 32 -21z m-163 -15 c37 -39 48 -74 48 -154 0 -74 -20 -139 -43 -139 -29 0
-83 46 -104 90 -49 95 -15 228 58 230 8 0 27 -12 41 -27z m-184 -38 l51 -15
-6 -38 c-3 -20 -7 -39 -9 -41 -11 -12 -81 16 -115 46 -43 39 -47 49 -21 56 32
8 48 7 100 -8z m310 -137 c23 -18 41 -36 41 -39 1 -4 -12 -12 -28 -19 -30 -12
-72 -11 -71 3 0 4 0 25 0 47 0 22 4 40 9 40 5 0 27 -15 49 -32z m-250 -11 c16
-46 17 -44 -33 -55 -40 -9 -95 -6 -95 5 0 27 67 83 100 83 9 0 21 -15 28 -33z
m40 -69 c23 -23 13 -56 -25 -87 -37 -30 -63 -40 -63 -22 0 16 32 86 48 104 18
20 24 21 40 5z m173 -36 c20 -31 20 -32 2 -32 -33 0 -56 24 -48 49 9 28 21 24
46 -17z m-71 -53 c0 -22 -7 -42 -19 -53 -17 -16 -19 -15 -35 18 -9 19 -16 47
-16 64 0 29 0 29 35 18 31 -10 35 -15 35 -47z m100 -104 c7 -8 23 -15 36 -15
32 0 31 -23 -2 -49 -35 -28 -54 -27 -54 3 0 20 4 23 28 19 27 -3 27 -3 -5 13
-34 18 -51 44 -29 44 7 0 19 -7 26 -15z"/>
<path d="M2445 2200 c-4 -6 -3 -16 3 -22 6 -6 12 -6 17 2 4 6 3 16 -3 22 -6 6
-12 6 -17 -2z"/>
<path d="M2520 2186 c0 -17 14 -29 23 -20 8 8 -3 34 -14 34 -5 0 -9 -6 -9 -14z"/>
<path d="M2480 2091 c0 -6 4 -13 10 -16 6 -3 7 1 4 9 -7 18 -14 21 -14 7z"/>
<path d="M2510 2030 c-23 -7 -23 -8 -3 -9 12 -1 25 4 28 9 3 6 5 10 3 9 -2 -1
-14 -5 -28 -9z"/>
<path d="M1219 2418 c-69 -87 -95 -162 -66 -186 7 -6 36 -14 65 -18 28 -3 56
-12 61 -18 15 -18 -14 -85 -57 -130 -61 -64 -103 -124 -93 -130 5 -4 20 8 33
26 12 18 44 56 69 84 25 28 54 72 64 98 17 44 17 47 0 66 -11 12 -37 21 -72
26 -30 3 -57 12 -60 20 -7 20 33 101 77 154 22 26 40 51 40 54 0 18 -24 0 -61
-46z"/>
<path d="M1865 2419 c-105 -17 -195 -41 -195 -51 0 -6 10 -8 23 -4 75 18 129
27 135 21 4 -4 7 -73 6 -155 0 -158 -8 -185 -55 -210 -50 -27 -104 28 -92 93
3 16 1 27 -6 27 -12 0 -15 -77 -5 -105 10 -25 62 -47 93 -40 16 3 38 17 51 30
29 31 44 147 36 277 l-6 96 60 7 c33 4 60 11 60 16 0 11 -35 10 -105 -2z"/>
<path d="M1485 2231 c-56 -25 -91 -71 -105 -135 -13 -62 -2 -116 29 -153 30
-36 92 -73 121 -73 31 0 80 34 80 56 0 21 -10 17 -33 -12 -17 -22 -26 -25 -53
-21 -47 8 -99 51 -118 98 -36 89 16 204 104 229 49 14 99 -19 100 -66 0 -32
-29 -52 -88 -60 -28 -3 -52 -11 -52 -17 0 -18 112 2 137 25 43 40 21 114 -42
138 -34 13 -33 13 -80 -9z"/>
<path d="M1986 2215 c-65 -70 -56 -267 12 -304 32 -17 97 -13 114 7 20 22 32
62 19 62 -5 0 -12 -8 -16 -19 -11 -35 -37 -50 -75 -43 -29 6 -39 16 -57 52
-30 58 -31 100 -2 100 37 0 130 31 136 45 7 20 -14 78 -38 103 -27 29 -65 28
-93 -3z m88 -17 c8 -13 16 -36 18 -53 3 -28 1 -30 -59 -44 -35 -8 -65 -12 -69
-9 -8 9 13 79 31 106 9 12 27 22 40 22 14 0 31 -9 39 -22z"/>
<path d="M1922 1778 c4 -30 43 -33 43 -3 0 13 -8 21 -23 23 -20 3 -23 0 -20
-20z"/>
<path d="M1397 1718 c-18 -43 -62 -199 -72 -251 -9 -56 10 -38 25 23 l12 50
48 0 48 0 13 -50 c12 -47 29 -68 29 -36 0 25 -70 280 -80 290 -5 5 -15 -6 -23
-26z m32 -65 c26 -100 27 -93 -12 -93 -53 0 -53 4 -12 118 7 20 14 14 24 -25z"/>
<path d="M1746 1723 c-2 -10 -8 -38 -11 -63 -12 -80 -38 -171 -46 -163 -4 4
-19 48 -34 97 -27 94 -31 103 -41 93 -7 -6 -53 -212 -54 -237 0 -37 21 12 35
80 22 108 25 112 41 53 7 -29 23 -72 35 -94 29 -58 41 -40 68 96 12 61 24 120
27 133 5 26 -12 30 -20 5z"/>
<path d="M1217 1723 c-3 -5 -11 -34 -18 -65 -8 -32 -16 -58 -19 -58 -3 0 -20
27 -39 60 -19 33 -40 60 -46 60 -17 0 -25 -47 -25 -137 0 -47 4 -72 10 -68 6
3 10 39 10 80 0 41 4 76 9 80 6 3 26 -24 46 -60 20 -36 40 -65 45 -65 5 0 11
19 15 43 4 23 11 48 15 56 9 18 16 -1 25 -74 10 -75 24 -125 36 -125 7 0 9 10
4 28 -4 15 -13 61 -20 102 -8 41 -17 90 -21 108 -7 33 -19 48 -27 35z"/>
<path d="M1940 1610 c0 -69 5 -132 10 -140 12 -18 11 -23 10 125 -1 66 -5 124
-11 130 -5 5 -9 -37 -9 -115z"/>
<path d="M2165 1700 c-26 -29 -31 -135 -8 -180 23 -45 64 -66 95 -49 33 17 38
28 38 83 0 126 -69 208 -125 146z m87 -50 c21 -56 23 -133 4 -150 -47 -38
-100 28 -93 117 7 94 58 113 89 33z"/>
<path d="M2052 1684 c-7 -13 -13 -14 -31 -5 -25 14 -26 8 -6 -23 8 -12 18 -57
21 -99 4 -42 11 -77 17 -77 6 0 7 29 3 80 -7 83 2 120 29 120 7 0 15 -6 18
-12 2 -7 8 -10 12 -6 4 4 5 14 2 23 -8 20 -54 19 -65 -1z"/>
<path d="M1782 1667 c-46 -49 -15 -245 40 -255 20 -4 51 40 45 65 -3 15 -6 13
-15 -9 -18 -43 -31 -42 -52 4 -27 59 -26 63 18 74 36 9 37 11 40 56 5 82 -31
113 -76 65z m56 -49 c3 -44 1 -48 -24 -54 -33 -8 -44 7 -34 51 10 44 19 57 38
53 13 -2 18 -16 20 -50z"/>
</g>
</svg>
